<?xml version="1.0" encoding="UTF-8"?>
<svg version="1.1" xmlns="http://www.w3.org/2000/svg" width="150" height="150">
    <path d="M0 0 C0.99 0 1.98 0 3 0 C12.63361684 19.32002063 17.21006238 38.78096334 11 60 C6.69584964 71.24752187 -0.12873335 78.22387549 -10.3046875 84.3984375 C-18.53241904 89.41264427 -22.60377451 96.13207789 -26 105 C-32.88923799 103.06240181 -39.17213303 96.88902611 -43 91 C-46.79948731 81.69125609 -45.82007372 71.14643667 -42 62 C-38.64968783 54.7409903 -33.01939144 50.08058727 -27 45 C-12.67601674 32.88365574 -2.85167884 18.95527696 0 0 Z " fill="#FFFFFF" transform="translate(93,38)"/>
    <path d="M0 0 C2 1 2 1 2.6328125 2.6875 C6.83030602 22.40905685 3.30016001 41.80397015 -7 59 C-13.79938102 69.32736173 -23.54767054 79.93243569 -35 85 C-37.24609375 84.828125 -37.24609375 84.828125 -39 84 C-42.91675409 75.96034687 -42.6355033 66.36090704 -40 58 C-36.0279478 48.23597349 -30.70619318 42.46314717 -22.51171875 36.09375 C-18.45847317 32.71499474 -14.38330601 28.76661201 -12 24 C-11.34 24 -10.68 24 -10 24 C-9.88398437 23.42507812 -9.76796875 22.85015625 -9.6484375 22.2578125 C-8.94857974 19.82095839 -7.94128528 18.03689886 -6.625 15.875 C-4.22586637 11.70078484 -2.81003319 7.60989249 -1.578125 2.96875 C-1 1 -1 1 0 0 Z " fill="#FFFFFF" transform="translate(85,1)"/>
    
    <path d="M0 0 C0 9.57 0 19.14 0 29 C-7.92 29 -15.84 29 -24 29 C-22.69843426 18.58747409 -19.26126783 11.59265532 -11 5 C-3.29113924 0 -3.29113924 0 0 0 Z " fill="#FFFFFF" transform="translate(98,121)"/>
    <path d="M0 0 C0 9.57 0 19.14 0 29 C-7.92 29 -15.84 29 -24 29 C-22.69843426 18.58747409 -19.26126783 11.59265532 -11 5 C-3.29113924 0 -3.29113924 0 0 0 Z M-5 4 C-5 4.66 -5 5.32 -5 6 C-6.32 6 -7.64 6 -9 6 C-9 6.66 -9 7.32 -9 8 C-9.99 8 -10.98 8 -12 8 C-12.33 8.99 -12.66 9.98 -13 11 C-14.33333333 12.33333333 -15.66666667 13.66666667 -17 15 C-18.00568242 16.66324401 -19.00664799 18.32936253 -20 20 C-20.66 20.33 -21.32 20.66 -22 21 C-22 22.98 -22 24.96 -22 27 C-15.4 27 -8.8 27 -2 27 C-2 19.74 -2 12.48 -2 5 C-2.99 4.67 -3.98 4.34 -5 4 Z " fill="#FFFFFF" transform="translate(98,121)"/>
    
    <path d="M0 0 C0.33 0.66 0.66 1.32 1 2 C1.66 2.33 2.32 2.66 3 3 C2.52827402 5.5473203 1.95413561 7.06550405 0.44921875 9.21484375 C-2.26888817 14.43859101 -0.8845338 20.34808918 0 26 C0.82159557 28.48532661 1.8474847 30.64258235 3 33 C2.67 33.99 2.34 34.98 2 36 C-3.83398407 29.58261753 -4.39193215 23.44987994 -4.265625 15.08203125 C-3.80953205 9.79001153 -2.37667219 4.75334438 0 0 Z " fill="#FFFFFF" transform="translate(52,98)"/>
    <path d="M0 0 C0.625 1.875 0.625 1.875 1 4 C0.34 4.66 -0.32 5.32 -1 6 C-1.96369045 10.90994183 -2.13509883 15.69362814 -2.125 20.6875 C-2.12757812 21.97011719 -2.13015625 23.25273438 -2.1328125 24.57421875 C-2.02782791 27.28220371 -1.81595878 29.442034 -1 32 C0.98 31.67 2.96 31.34 5 31 C3.25 33.0625 3.25 33.0625 1 35 C-1.125 35.125 -1.125 35.125 -3 34 C-6.92423013 25.94500131 -6.59941288 16.38344678 -4 8 C-2.8101531 5.21313426 -1.47503964 2.65507135 0 0 Z " fill="#FFFFFF" transform="translate(49,51)"/>
    <path d="M0 0 C2 1 2 1 2.6328125 2.6875 C5.47130939 16.02392985 4.48123148 28.92466032 1 42 C0.67 42 0.34 42 0 42 C0 38.7 0 35.4 0 32 C0.66 32 1.32 32 2 32 C1.67 23.42 1.34 14.84 1 6 C0.34 6 -0.32 6 -1 6 C-1.66 7.32 -2.32 8.64 -3 10 C-2.69201674 8.51988629 -2.378482 7.04092675 -2.0625 5.5625 C-1.88847656 4.73878906 -1.71445313 3.91507812 -1.53515625 3.06640625 C-1 1 -1 1 0 0 Z " fill="#FFFFFF" transform="translate(85,1)"/>
    <path d="M0 0 C5.64562037 10.46925665 3.27291799 25.97026636 0 37 C-4.45263158 48.22631579 -4.45263158 48.22631579 -8 50 C-8 48.35 -8 46.7 -8 45 C-7.01 44.505 -7.01 44.505 -6 44 C-4.92705853 41.67529349 -3.94034756 39.37614705 -3 37 C-2.62875 36.13375 -2.2575 35.2675 -1.875 34.375 C-0.17815105 29.76926714 0.1208225 25.49354716 0.09765625 20.60546875 C0.09282227 18.80239258 0.09282227 18.80239258 0.08789062 16.96289062 C0.07951172 15.71701172 0.07113281 14.47113281 0.0625 13.1875 C0.05798828 11.92228516 0.05347656 10.65707031 0.04882812 9.35351562 C0.03706251 6.2356289 0.02062272 3.11783867 0 0 Z " fill="#FFFFFF" transform="translate(104,61)"/>
    <path d="M0 0 C2.97 0.495 2.97 0.495 6 1 C5.62488281 1.4125 5.24976562 1.825 4.86328125 2.25 C-0.13796729 7.89372632 -4.5257736 13.80225048 -7 21 C-11.43458973 19.6062718 -13.87378374 17.39417765 -17 14 C-14.36 14.66 -11.72 15.32 -9 16 C-8.71125 15.236875 -8.4225 14.47375 -8.125 13.6875 C-7 11 -7 11 -5 8 C-4.319375 7.731875 -3.63875 7.46375 -2.9375 7.1875 C-0.63171522 6.08838835 -0.63171522 6.08838835 -0.25 2.875 C-0.1675 1.92625 -0.085 0.9775 0 0 Z " fill="#FFFFFF" transform="translate(74,122)"/>
    <path d="M0 0 C0.98120464 3.05263664 0.98120464 4.94736336 0 8 C-0.66 8 -1.32 8 -2 8 C-2.17015625 8.66386719 -2.3403125 9.32773437 -2.515625 10.01171875 C-4.96838781 18.94864709 -9.42285219 24.6010877 -17 30 C-17.99 30 -18.98 30 -20 30 C-19.50371094 29.55011719 -19.00742188 29.10023437 -18.49609375 28.63671875 C-12.89121797 23.32963523 -8.91207713 17.62577114 -5 11 C-4.46375 10.13375 -3.9275 9.2675 -3.375 8.375 C-1.81080843 5.67321457 -0.90135311 2.98139876 0 0 Z " fill="#FFFFFF" transform="translate(90,50)"/>
    <path d="M0 0 C0.66 0 1.32 0 2 0 C2.75 1.6875 2.75 1.6875 3 4 C0.51902433 8.00772993 -1.65223184 9.43926271 -6 11 C-7.77277259 12.52007842 -7.77277259 12.52007842 -9 14 C-9.66 13.67 -10.32 13.34 -11 13 C-10.31164063 12.34644531 -10.31164063 12.34644531 -9.609375 11.6796875 C-6.6456325 8.8031139 -3.89114819 6.0732551 -1.6875 2.5625 C-1.130625 1.716875 -0.57375 0.87125 0 0 Z " fill="#FFFFFF" transform="translate(73,25)"/>
    <path d="M0 0 C0.33 0 0.66 0 1 0 C1.03738281 0.85722656 1.07476562 1.71445313 1.11328125 2.59765625 C1.49022744 9.15356345 2.17975229 14.10311842 5 20 C4.67 20.99 4.34 21.98 4 23 C0.05449475 18.90426509 -0.57410065 15.9967894 -0.8125 10.375 C-0.88082031 9.06273438 -0.94914062 7.75046875 -1.01953125 6.3984375 C-1 3 -1 3 0 0 Z " fill="#FFFFFF" transform="translate(50,111)"/>
    <path d="M0 0 C0.99 0 1.98 0 3 0 C3.67154933 1.28913487 4.33708859 2.58140204 5 3.875 C5.37125 4.59429687 5.7425 5.31359375 6.125 6.0546875 C7 8 7 8 7 10 C6.01 9.67 5.02 9.34 4 9 C3.67 8.01 3.34 7.02 3 6 C2.34 5.67 1.68 5.34 1 5 C0.87625 5.78375 0.7525 6.5675 0.625 7.375 C0 10 0 10 -2 12 C-1.34 8.04 -0.68 4.08 0 0 Z " fill="#FFFFFF" transform="translate(93,38)"/>
    <path d="M0 0 C0 3 0 3 -1.71484375 5.04296875 C-2.44832031 5.75066406 -3.18179688 6.45835938 -3.9375 7.1875 C-4.66839844 7.90292969 -5.39929688 8.61835937 -6.15234375 9.35546875 C-8 11 -8 11 -9 11 C-9.1875 8.625 -9.1875 8.625 -9 6 C-8.01 5.34 -7.02 4.68 -6 4 C-5.67 3.01 -5.34 2.02 -5 1 C-3.35 0.67 -1.7 0.34 0 0 Z " fill="#FFFFFF" transform="translate(73,64)"/>
    <path d="M0 0 C0.33 0 0.66 0 1 0 C1.05874776 3.33325754 1.09384467 6.66637938 1.125 10 C1.15013672 11.40185547 1.15013672 11.40185547 1.17578125 12.83203125 C1.21606145 18.59209963 0.65416655 23.4774282 -1 29 C-1.33 29 -1.66 29 -2 29 C-2 25.7 -2 22.4 -2 19 C-1.34 19 -0.68 19 0 19 C0 12.73 0 6.46 0 0 Z " fill="#FFFFFF" transform="translate(87,14)"/>
    <path d="M0 0 C0.625 1.875 0.625 1.875 1 4 C0.34 4.66 -0.32 5.32 -1 6 C-1.4673667 8.8907496 -1.83699342 11.71660569 -2.125 14.625 C-2.21136719 15.42679688 -2.29773437 16.22859375 -2.38671875 17.0546875 C-2.59896327 19.03563635 -2.80049931 21.01772718 -3 23 C-3.33 23 -3.66 23 -4 23 C-4.54448399 6.81672598 -4.54448399 6.81672598 0 0 Z " fill="#FFFFFF" transform="translate(49,51)"/>
    <path d="M0 0 C0.66 0.33 1.32 0.66 2 1 C-1.61251516 5.56048012 -4.98797445 9.01665146 -10 12 C-8.43873668 8.16780823 -5.97133075 5.82638778 -3 3 C-2.401875 2.401875 -1.80375 1.80375 -1.1875 1.1875 C-0.795625 0.795625 -0.40375 0.40375 0 0 Z " fill="#FFFFFF" transform="translate(60,39)"/>
    <path d="M0 0 C1.65 0.33 3.3 0.66 5 1 C2.66666667 3.33333333 0.33333333 5.66666667 -2 8 C-2.99 7.67 -3.98 7.34 -5 7 C-4.54625 6.5875 -4.0925 6.175 -3.625 5.75 C-1.94049626 3.93591905 -1.00734029 2.24714373 0 0 Z " fill="#FFFFFF" transform="translate(59,74)"/>
    <path d="M0 0 C0.33 0 0.66 0 1 0 C1.50265724 5.27790097 0.25108731 7.86225252 -3 12 C-3.33 12 -3.66 12 -4 12 C-4 10.35 -4 8.7 -4 7 C-3.34 6.67 -2.68 6.34 -2 6 C-1.27306096 4.02111039 -0.60183749 2.02045442 0 0 Z " fill="#FFFFFF" transform="translate(100,99)"/>
    <path d="M0 0 C0 3 0 3 -2 6 C-2.66 6 -3.32 6 -4 6 C-4.33 6.99 -4.66 7.98 -5 9 C-5.99 9 -6.98 9 -8 9 C-8 8.34 -8 7.68 -8 7 C-6.25 5.2734375 -6.25 5.2734375 -4 3.375 C-3.2575 2.74335937 -2.515 2.11171875 -1.75 1.4609375 C-1.1725 0.97882813 -0.595 0.49671875 0 0 Z " fill="#FFFFFF" transform="translate(78,74)"/>
    <path d="M0 0 C2.97 0.495 2.97 0.495 6 1 C4.71034824 2.37562854 3.37310707 3.70766393 2 5 C1.34 5 0.68 5 0 5 C0 3.35 0 1.7 0 0 Z " fill="#FFFFFF" transform="translate(74,122)"/>
    <path d="M0 0 C0.66 0 1.32 0 2 0 C2.33 0.99 2.66 1.98 3 3 C2.0409375 3.433125 2.0409375 3.433125 1.0625 3.875 C-1.15206079 4.82823451 -1.15206079 4.82823451 -2 7 C-2.66 6.67 -3.32 6.34 -4 6 C-2.7260411 3.96166576 -1.38938077 1.96147874 0 0 Z " fill="#FFFFFF" transform="translate(73,25)"/>
</svg>